<svg width="32" height="32" viewBox="0 0 32 32" fill="none" xmlns="http://www.w3.org/2000/svg">
<rect width="32" height="32" rx="4" fill="black"/>
<path d="M18 13C18 12.4609 18 12.0742 17.9443 11.7891C17.9033 11.5781 17.832 11.418 17.707 11.293C17.4141 11 16.9424 11 16 11H8C7.05762 11 6.58594 11 6.29297 10.707C6 10.4141 6 9.94141 6 9V8C6 7.05859 6 6.58594 6.29297 6.29297C6.58594 6 7.05762 6 8 6H18C20.7617 6 23 8.23828 23 11V14.5L22.9971 14.9688C22.9971 14.9805 22.9961 14.9883 22.9961 15H23.5C24.3281 15 25 15.6719 25 16.5C25 17.3281 24.3281 18 23.5 18H17.5C16.6719 18 16 17.3281 16 16.5C16 15.6719 16.6719 15 17.5 15H18.0049L18 14.5V13Z" fill="white"/>
<path d="M20.5 20L22.7109 24.4219C23.5332 26.0664 22.3379 28 20.5 28C18.6621 28 17.4668 26.0664 18.2891 24.4219L20.5 20Z" fill="white"/>
</svg>
