<svg width="16" height="16" viewBox="0 0 16 16" fill="none" xmlns="http://www.w3.org/2000/svg">
<path d="M2 16C1.45 16 0.979167 15.8042 0.5875 15.4125C0.195833 15.0208 0 14.55 0 14V10C0 9.45 0.195833 8.97917 0.5875 8.5875C0.979167 8.19583 1.45 8 2 8C2.55 8 3.02083 8.19583 3.4125 8.5875C3.80417 8.97917 4 9.45 4 10V14C4 14.55 3.80417 15.0208 3.4125 15.4125C3.02083 15.8042 2.55 16 2 16ZM8 16C7.45 16 6.97917 15.8042 6.5875 15.4125C6.19583 15.0208 6 14.55 6 14V2C6 1.45 6.19583 0.979167 6.5875 0.5875C6.97917 0.195833 7.45 0 8 0C8.55 0 9.02083 0.195833 9.4125 0.5875C9.80417 0.979167 10 1.45 10 2V14C10 14.55 9.80417 15.0208 9.4125 15.4125C9.02083 15.8042 8.55 16 8 16ZM14 16C13.45 16 12.9792 15.8042 12.5875 15.4125C12.1958 15.0208 12 14.55 12 14V7C12 6.45 12.1958 5.97917 12.5875 5.5875C12.9792 5.19583 13.45 5 14 5C14.55 5 15.0208 5.19583 15.4125 5.5875C15.8042 5.97917 16 6.45 16 7V14C16 14.55 15.8042 15.0208 15.4125 15.4125C15.0208 15.8042 14.55 16 14 16Z" fill="#0f172a"/>
</svg>
