<svg width="24" height="24" viewBox="0 0 24 24" fill="none" xmlns="http://www.w3.org/2000/svg">
<mask id="mask0_995_5307" style="mask-type:alpha" maskUnits="userSpaceOnUse" x="0" y="0" width="24" height="24">
<rect width="24" height="24" fill="#D9D9D9"/>
</mask>
<g mask="url(#mask0_995_5307)">
<path d="M6 20C5.45 20 4.97917 19.8042 4.5875 19.4125C4.19583 19.0208 4 18.55 4 18V14C4 13.45 4.19583 12.9792 4.5875 12.5875C4.97917 12.1958 5.45 12 6 12C6.55 12 7.02083 12.1958 7.4125 12.5875C7.80417 12.9792 8 13.45 8 14V18C8 18.55 7.80417 19.0208 7.4125 19.4125C7.02083 19.8042 6.55 20 6 20ZM12 20C11.45 20 10.9792 19.8042 10.5875 19.4125C10.1958 19.0208 10 18.55 10 18V6C10 5.45 10.1958 4.97917 10.5875 4.5875C10.9792 4.19583 11.45 4 12 4C12.55 4 13.0208 4.19583 13.4125 4.5875C13.8042 4.97917 14 5.45 14 6V18C14 18.55 13.8042 19.0208 13.4125 19.4125C13.0208 19.8042 12.55 20 12 20ZM18 20C17.45 20 16.9792 19.8042 16.5875 19.4125C16.1958 19.0208 16 18.55 16 18V11C16 10.45 16.1958 9.97917 16.5875 9.5875C16.9792 9.19583 17.45 9 18 9C18.55 9 19.0208 9.19583 19.4125 9.5875C19.8042 9.97917 20 10.45 20 11V18C20 18.55 19.8042 19.0208 19.4125 19.4125C19.0208 19.8042 18.55 20 18 20Z" fill="black"/>
</g>
</svg>
