<svg width="18" height="18" viewBox="0 0 18 18" fill="none" xmlns="http://www.w3.org/2000/svg">
<path d="M14.6 16L10.3 11.7C10.1167 11.5167 10.0208 11.2875 10.0125 11.0125C10.0042 10.7375 10.0917 10.5 10.275 10.3C10.4583 10.1 10.6917 10 10.975 10C11.2583 10 11.5 10.1 11.7 10.3L16 14.6V11C16 10.7167 16.0958 10.4792 16.2875 10.2875C16.4792 10.0958 16.7167 10 17 10C17.2833 10 17.5208 10.0958 17.7125 10.2875C17.9042 10.4792 18 10.7167 18 11V17C18 17.2833 17.9042 17.5208 17.7125 17.7125C17.5208 17.9042 17.2833 18 17 18H11C10.7167 18 10.4792 17.9042 10.2875 17.7125C10.0958 17.5208 10 17.2833 10 17C10 16.7167 10.0958 16.4792 10.2875 16.2875C10.4792 16.0958 10.7167 16 11 16H14.6ZM3 13H1C0.716667 13 0.479167 12.9042 0.2875 12.7125C0.0958333 12.5208 0 12.2833 0 12C0 11.7167 0.0958333 11.4792 0.2875 11.2875C0.479167 11.0958 0.716667 11 1 11H6V8H2C1.45 8 0.979167 7.80417 0.5875 7.4125C0.195833 7.02083 0 6.55 0 6V3C0 2.45 0.195833 1.97917 0.5875 1.5875C0.979167 1.19583 1.45 1 2 1H3C3 0.716667 3.09583 0.479167 3.2875 0.2875C3.47917 0.0958333 3.71667 0 4 0C4.28333 0 4.52083 0.0958333 4.7125 0.2875C4.90417 0.479167 5 0.716667 5 1H7C7.28333 1 7.52083 1.09583 7.7125 1.2875C7.90417 1.47917 8 1.71667 8 2C8 2.28333 7.90417 2.52083 7.7125 2.7125C7.52083 2.90417 7.28333 3 7 3H2V6H6C6.55 6 7.02083 6.19583 7.4125 6.5875C7.80417 6.97917 8 7.45 8 8V11C8 11.55 7.80417 12.0208 7.4125 12.4125C7.02083 12.8042 6.55 13 6 13H5C5 13.2833 4.90417 13.5208 4.7125 13.7125C4.52083 13.9042 4.28333 14 4 14C3.71667 14 3.47917 13.9042 3.2875 13.7125C3.09583 13.5208 3 13.2833 3 13Z" fill="#0f172a"/>
</svg>
