<svg xmlns="http://www.w3.org/2000/svg" width="24" height="24" viewBox="0 0 24 24" fill="none">
  <mask id="mask0_995_5543" style="mask-type:alpha" maskUnits="userSpaceOnUse" x="0" y="0" width="24" height="24">
  <rect width="24" height="24" fill="#D9D9D9"/>
  </mask>
  <g mask="url(#mask0_995_5543)">
  <path d="M17.6 19L13.3 14.7C13.1167 14.5167 13.0208 14.2875 13.0125 14.0125C13.0042 13.7375 13.0917 13.5 13.275 13.3C13.4583 13.1 13.6917 13 13.975 13C14.2583 13 14.5 13.1 14.7 13.3L19 17.6V14C19 13.7167 19.0958 13.4792 19.2875 13.2875C19.4792 13.0958 19.7167 13 20 13C20.2833 13 20.5208 13.0958 20.7125 13.2875C20.9042 13.4792 21 13.7167 21 14V20C21 20.2833 20.9042 20.5208 20.7125 20.7125C20.5208 20.9042 20.2833 21 20 21H14C13.7167 21 13.4792 20.9042 13.2875 20.7125C13.0958 20.5208 13 20.2833 13 20C13 19.7167 13.0958 19.4792 13.2875 19.2875C13.4792 19.0958 13.7167 19 14 19H17.6ZM6 16H4C3.71667 16 3.47917 15.9042 3.2875 15.7125C3.09583 15.5208 3 15.2833 3 15C3 14.7167 3.09583 14.4792 3.2875 14.2875C3.47917 14.0958 3.71667 14 4 14H9V11H5C4.45 11 3.97917 10.8042 3.5875 10.4125C3.19583 10.0208 3 9.55 3 9V6C3 5.45 3.19583 4.97917 3.5875 4.5875C3.97917 4.19583 4.45 4 5 4H6C6 3.71667 6.09583 3.47917 6.2875 3.2875C6.47917 3.09583 6.71667 3 7 3C7.28333 3 7.52083 3.09583 7.7125 3.2875C7.90417 3.47917 8 3.71667 8 4H10C10.2833 4 10.5208 4.09583 10.7125 4.2875C10.9042 4.47917 11 4.71667 11 5C11 5.28333 10.9042 5.52083 10.7125 5.7125C10.5208 5.90417 10.2833 6 10 6H5V9H9C9.55 9 10.0208 9.19583 10.4125 9.5875C10.8042 9.97917 11 10.45 11 11V14C11 14.55 10.8042 15.0208 10.4125 15.4125C10.0208 15.8042 9.55 16 9 16H8C8 16.2833 7.90417 16.5208 7.7125 16.7125C7.52083 16.9042 7.28333 17 7 17C6.71667 17 6.47917 16.9042 6.2875 16.7125C6.09583 16.5208 6 16.2833 6 16Z" fill="black"/>
  </g>
  </svg>