<svg width="150" height="22" viewBox="0 0 150 22" fill="none" xmlns="http://www.w3.org/2000/svg">
<g clip-path="url(#clip0_960_4817)">
<mask id="mask0_960_4817" style="mask-type:luminance" maskUnits="userSpaceOnUse" x="0" y="0" width="150" height="22">
<path d="M0 0H150V22H0V0Z" fill="white"/>
</mask>
<g mask="url(#mask0_960_4817)">
<path d="M25.2003 17.3457L21.0858 21.6999C20.9968 21.7945 20.889 21.87 20.7692 21.9216C20.6493 21.9733 20.52 22 20.3892 22.0001H0.884554C0.791526 22 0.700533 21.9732 0.622716 21.9229C0.544898 21.8726 0.483634 21.801 0.446424 21.7168C0.409215 21.6327 0.397675 21.5397 0.413218 21.4491C0.428761 21.3586 0.470712 21.2745 0.533934 21.2072L4.64384 16.853C4.73283 16.7584 4.84061 16.683 4.96046 16.6313C5.08031 16.5797 5.20966 16.5529 5.34044 16.5528H24.8451C24.939 16.5509 25.0313 16.5764 25.1105 16.6262C25.1897 16.676 25.2523 16.7477 25.2903 16.8325C25.3282 16.9173 25.34 17.0112 25.324 17.1025C25.308 17.1939 25.2649 17.2785 25.2003 17.3457ZM21.0858 8.57552C20.9965 8.48137 20.8886 8.40619 20.7688 8.35458C20.6491 8.30296 20.5199 8.27599 20.3892 8.27531H0.884554C0.791526 8.27536 0.700533 8.30218 0.622716 8.35249C0.544898 8.4028 0.483634 8.47442 0.446424 8.55857C0.409215 8.64271 0.397675 8.73574 0.413218 8.82627C0.428761 8.91679 0.470712 9.00087 0.533934 9.06822L4.64384 13.4247C4.73318 13.5188 4.84103 13.594 4.9608 13.6456C5.08057 13.6972 5.20975 13.7242 5.34044 13.7249H24.8451C24.9379 13.7244 25.0286 13.6973 25.1061 13.6468C25.1835 13.5963 25.2444 13.5246 25.2814 13.4406C25.3183 13.3565 25.3296 13.2637 25.314 13.1734C25.2984 13.0831 25.2565 12.9992 25.1934 12.932L21.0858 8.57552ZM0.884554 5.44739H20.3892C20.52 5.44728 20.6493 5.42057 20.7692 5.36892C20.889 5.31726 20.9968 5.24178 21.0858 5.14718L25.2003 0.793018C25.2486 0.742695 25.2849 0.682478 25.3069 0.616671C25.3288 0.550864 25.3357 0.481092 25.3271 0.412343C25.3185 0.343594 25.2946 0.277566 25.2572 0.218979C25.2197 0.160392 25.1696 0.110693 25.1105 0.0734343C25.0313 0.0236947 24.9389 -0.00181943 24.8451 0.000100957H5.34044C5.20966 0.000236816 5.08031 0.0269635 4.96046 0.0786143C4.84061 0.130265 4.73283 0.205732 4.64384 0.300309L0.533934 4.65448C0.470712 4.72183 0.428761 4.80591 0.413218 4.89643C0.397675 4.98696 0.409215 5.07999 0.446424 5.16414C0.483634 5.24828 0.544898 5.3199 0.622716 5.37021C0.700533 5.42052 0.791526 5.44734 0.884554 5.44739Z" fill="white"/>
<path d="M48.9797 9.30508H38.5447V5.91341H51.6918V2.52175H38.5099C38.0595 2.51927 37.613 2.60439 37.196 2.77225C36.7789 2.9401 36.3995 3.1874 36.0793 3.50002C35.759 3.81263 35.5044 4.18445 35.3298 4.59422C35.1552 5.00399 35.0641 5.44369 35.0618 5.88821V9.32571C35.0635 9.77061 35.1542 10.2108 35.3285 10.6211C35.5028 11.0314 35.7573 11.4038 36.0776 11.7169C36.3979 12.03 36.7776 12.2777 37.1949 12.4458C37.6123 12.6139 38.0591 12.6992 38.5099 12.6967H48.9588V16.0884H35.3102V19.4801H48.9797C49.6581 19.4838 50.3223 19.2889 50.8883 18.92C51.4544 18.551 51.8968 18.0247 52.1597 17.4075C52.3343 16.9978 52.4255 16.5581 52.4279 16.1136V12.6761C52.4261 12.2312 52.3354 11.791 52.1611 11.3808C51.9868 10.9705 51.7322 10.5981 51.412 10.285C51.0917 9.97194 50.712 9.72423 50.2947 9.55608C49.8773 9.38793 49.4305 9.30264 48.9797 9.30508ZM69.1949 2.52175H58.7204C58.041 2.51641 57.3752 2.71034 56.8076 3.07897C56.2399 3.44759 55.796 3.97429 55.5321 4.59227C55.3568 5.00254 55.2654 5.44295 55.263 5.88821V16.1136C55.2653 16.5589 55.3568 16.9994 55.5321 17.4098C55.796 18.0278 56.2399 18.5545 56.8075 18.9231C57.3752 19.2917 58.041 19.4855 58.7204 19.4801H69.1949C69.6453 19.4826 70.0918 19.3974 70.5088 19.2296C70.9259 19.0617 71.3054 18.8144 71.6256 18.5018C71.9458 18.1892 72.2004 17.8174 72.375 17.4076C72.5496 16.9978 72.6407 16.5581 72.643 16.1136V5.88821C72.6407 5.4437 72.5496 5.00401 72.375 4.59428C72.2004 4.18454 71.9456 3.81279 71.6253 3.50029C71.3052 3.18757 70.9258 2.94018 70.5088 2.77228C70.0918 2.60437 69.6453 2.51924 69.1949 2.52175ZM69.1694 16.0884H58.746V5.91341H69.1647L69.1694 16.0884ZM105.882 2.52175H95.6655C95.2151 2.51927 94.7686 2.60439 94.3516 2.77225C93.9345 2.9401 93.555 3.1874 93.2348 3.50002C92.9146 3.81263 92.66 4.18445 92.4854 4.59422C92.3108 5.00399 92.2197 5.44369 92.2173 5.88821V19.4801H95.7003V13.909H105.871V19.4801H109.354V5.88821C109.351 5.44173 109.259 5.00011 109.083 4.5888C108.907 4.1775 108.651 3.80463 108.328 3.4917C108.005 3.17877 107.623 2.93196 107.203 2.76549C106.784 2.59902 106.335 2.51618 105.882 2.52175ZM105.857 10.5174H95.6864V5.91341H105.857V10.5174ZM146.552 2.52175H136.335C135.885 2.51927 135.438 2.60439 135.021 2.77225C134.604 2.9401 134.225 3.1874 133.904 3.50002C133.584 3.81263 133.329 4.18445 133.155 4.59422C132.98 5.00399 132.889 5.44369 132.887 5.88821V19.4801H136.37V13.909H146.517V19.4801H150V5.88821C149.998 5.4437 149.906 5.00401 149.732 4.59428C149.557 4.18454 149.302 3.81279 148.982 3.50029C148.336 2.86895 147.461 2.51696 146.552 2.52175ZM146.517 10.5174H136.347V5.91341H146.517V10.5174ZM126.316 16.0884H124.922L119.942 3.94258C119.771 3.5235 119.477 3.16432 119.098 2.91115C118.72 2.65798 118.272 2.52238 117.815 2.52175H114.724C114.272 2.51934 113.829 2.64947 113.452 2.89567C113.074 3.14187 112.779 3.49305 112.604 3.90477C112.488 4.17803 112.427 4.4712 112.426 4.76758V19.4801H115.909V5.91341H117.302L122.28 18.0592C122.453 18.4776 122.749 18.8353 123.13 19.0868C123.51 19.3382 123.958 19.472 124.416 19.4709H127.507C127.807 19.4725 128.105 19.4156 128.383 19.3036C128.661 19.1915 128.914 19.0264 129.128 18.8178C129.559 18.3966 129.802 17.8237 129.806 17.2251V2.52175H126.316V16.0884ZM79.2026 2.52175H75.7197V16.1136C75.722 16.5591 75.8135 16.9997 75.9888 17.4102C76.1641 17.8207 76.4199 18.193 76.7413 18.5057C77.0628 18.8184 77.4436 19.0654 77.862 19.2326C78.2804 19.3999 78.7281 19.4839 79.1794 19.4801H89.6283V16.0884H79.2026V2.52175Z" fill="white"/>
</g>
</g>
<defs>
<clipPath id="clip0_960_4817">
<rect width="150" height="22" fill="white"/>
</clipPath>
</defs>
</svg>
