<svg width="88" height="17" viewBox="0 0 88 17" fill="none" xmlns="http://www.w3.org/2000/svg">
<path d="M0.08 16V0.543999H8.576C10.144 0.543999 11.336 0.911999 12.152 1.648C12.968 2.384 13.376 3.44 13.376 4.816C13.376 5.616 13.224 6.288 12.92 6.832C12.632 7.376 12.248 7.808 11.768 8.128C12.424 8.384 12.944 8.76 13.328 9.256C13.728 9.736 13.928 10.456 13.928 11.416C13.928 12.872 13.48 14 12.584 14.8C11.688 15.6 10.416 16 8.768 16H0.08ZM4.424 6.712H7.352C8.456 6.712 9.008 6.216 9.008 5.224C9.008 4.728 8.872 4.352 8.6 4.096C8.344 3.84 7.888 3.712 7.232 3.712H4.424V6.712ZM4.424 12.856H7.544C8.152 12.856 8.6 12.728 8.888 12.472C9.176 12.216 9.32 11.792 9.32 11.2C9.32 10.704 9.176 10.328 8.888 10.072C8.6 9.816 8.12 9.688 7.448 9.688H4.424V12.856ZM15.8591 16V0.543999H20.3711V16H15.8591ZM27.8427 16.24C26.8027 16.24 25.8187 16.16 24.8907 16C23.9627 15.824 23.1707 15.584 22.5147 15.28V11.56C23.2347 11.896 24.0347 12.168 24.9147 12.376C25.7947 12.584 26.6187 12.688 27.3867 12.688C28.1867 12.688 28.7867 12.624 29.1867 12.496C29.6028 12.352 29.8108 12.04 29.8108 11.56C29.8108 11.224 29.6908 10.96 29.4507 10.768C29.2267 10.576 28.8668 10.4 28.3708 10.24C27.8907 10.08 27.2587 9.88 26.4747 9.64C25.4347 9.304 24.6107 8.936 24.0027 8.536C23.3947 8.136 22.9547 7.648 22.6827 7.072C22.4267 6.496 22.2987 5.792 22.2987 4.96C22.2987 3.44 22.8347 2.288 23.9067 1.504C24.9947 0.703999 26.6027 0.303999 28.7307 0.303999C29.5787 0.303999 30.4507 0.375999 31.3467 0.519999C32.2587 0.663999 32.9948 0.823999 33.5547 1V4.744C32.8028 4.44 32.0828 4.224 31.3947 4.096C30.7068 3.968 30.0588 3.904 29.4507 3.904C28.7467 3.904 28.1467 3.96 27.6507 4.072C27.1547 4.184 26.9067 4.472 26.9067 4.936C26.9067 5.336 27.1147 5.632 27.5307 5.824C27.9627 6 28.7227 6.232 29.8108 6.52C31.0748 6.856 32.0348 7.264 32.6908 7.744C33.3627 8.224 33.8187 8.784 34.0588 9.424C34.2988 10.048 34.4188 10.76 34.4188 11.56C34.4188 12.968 33.8748 14.104 32.7867 14.968C31.6988 15.816 30.0508 16.24 27.8427 16.24ZM44.4673 16.24C41.6673 16.24 39.5313 15.552 38.0593 14.176C36.5873 12.8 35.8513 10.856 35.8513 8.344C35.8513 5.752 36.5713 3.768 38.0113 2.392C39.4513 0.999999 41.5953 0.303999 44.4433 0.303999C45.4033 0.303999 46.2593 0.375999 47.0113 0.519999C47.7633 0.663999 48.4833 0.863999 49.1713 1.12V5.056C47.7953 4.448 46.3233 4.144 44.7553 4.144C43.2993 4.144 42.2193 4.48 41.5153 5.152C40.8113 5.808 40.4593 6.872 40.4593 8.344C40.4593 9.784 40.8273 10.824 41.5633 11.464C42.3153 12.088 43.3953 12.4 44.8033 12.4C45.5713 12.4 46.3153 12.328 47.0353 12.184C47.7713 12.04 48.4993 11.816 49.2193 11.512V15.472C48.5313 15.712 47.8033 15.896 47.0353 16.024C46.2833 16.168 45.4273 16.24 44.4673 16.24ZM58.3494 16.24C56.9094 16.24 55.6374 16.008 54.5334 15.544C53.4454 15.064 52.5894 14.368 51.9654 13.456C51.3414 12.528 51.0294 11.392 51.0294 10.048V0.543999H55.5414V9.568C55.5414 11.456 56.4774 12.4 58.3494 12.4C59.2454 12.4 59.9334 12.168 60.4134 11.704C60.8934 11.24 61.1334 10.528 61.1334 9.568V0.543999H65.6454V10.048C65.6454 11.392 65.3334 12.528 64.7094 13.456C64.1014 14.368 63.2454 15.064 62.1414 15.544C61.0534 16.008 59.7894 16.24 58.3494 16.24ZM67.9362 16V0.543999H72.4482V16H67.9362ZM78.2399 16V3.904H73.8959V0.543999H87.0959V3.904H82.7519V16H78.2399Z" fill="black"/>
</svg>
