<svg width="1760" height="811" viewBox="0 0 1760 811" fill="none" xmlns="http://www.w3.org/2000/svg">
<g clip-path="url(#clip0_936_4232)">
<rect width="1760" height="877" fill="white"/>
<g filter="url(#filter0_f_936_4232)">
<path d="M-449.833 951.434C1125.99 951.434 1873 569.254 1873 51.5341C1873 -466.186 432.288 -394.128 -95.3889 51.5341C-412.54 319.392 -2025.66 951.434 -449.833 951.434Z" fill="url(#paint0_radial_936_4232)"/>
</g>
<g filter="url(#filter1_f_936_4232)">
<ellipse cx="379.28" cy="89.5413" rx="379.28" ry="89.5413" transform="matrix(0.995087 -0.0990066 0.154644 0.98797 151 246.102)" fill="#22D3EE"/>
</g>
<path d="M743 1301.63C801.062 924.298 1460.99 401.047 1690.47 449.335C1840.9 480.999 1837.52 851.971 1864.65 953.323C1901.6 1091.54 1763.28 829.833 1603.37 776.531C1413.35 713.203 913.808 809.33 1001.64 504.378C1078.33 238.241 1326.73 180.612 1320.98 -10.1647C1315.7 -182.708 1107.21 -317.122 933.021 -403.328" stroke="white" stroke-miterlimit="10"/>
<path d="M758.228 1301.65C822.967 940.155 1462.07 436.774 1681.94 477.014C1825.99 503.401 1821.19 854.741 1845.57 948.52C1879.33 1078.53 1746.39 827.985 1592.98 775.132C1409.02 711.804 930.963 799.197 1015.65 504.799C1091 242.171 1345.18 189.16 1345.55 -3.33165C1345.24 -176.192 1141.25 -315.91 970.788 -405.915" stroke="white" stroke-miterlimit="10"/>
<path d="M773.376 1301.69C844.793 956.018 1463.02 472.507 1673.34 504.672C1811 525.781 1804.77 857.516 1826.41 943.722C1856.87 1065.55 1729.42 826.143 1582.47 773.738C1404.59 710.41 948.064 789.043 1029.59 505.226C1103.62 246.108 1364.24 197.714 1370.04 3.48107C1375.32 -169.669 1175.25 -314.691 1008.47 -408.522" stroke="white" stroke-miterlimit="10"/>
<path d="M788.631 1301.69C866.751 971.85 1464 508.208 1664.84 532.325C1796.03 548.157 1788.46 860.287 1807.36 938.92C1834.33 1052.62 1712.45 824.269 1571.99 772.34C1400.16 708.827 965.166 778.884 1043.5 505.622C1116.23 250.039 1383.03 206.316 1394.51 10.3415C1404.78 -163.099 1209.26 -313.451 1046.14 -411.108" stroke="white" stroke-miterlimit="10"/>
<path d="M803.833 1301.71C888.63 987.55 1464.84 543.935 1656.29 559.978C1780.99 570.532 1772.07 863.03 1788.09 934.09C1811.84 1039.64 1695.51 822.368 1561.52 770.94C1395.75 707.322 982.295 768.724 1057.43 506.043C1128.85 253.97 1401.53 214.891 1419 17.122C1434.33 -156.556 1243.26 -312.291 1083.82 -413.722" stroke="white" stroke-miterlimit="10"/>
<path d="M819.035 1301.74C910.535 1003.35 1465.64 579.661 1647.74 587.657C1765.87 592.934 1755.68 865.773 1768.96 929.286C1789.28 1026.6 1678.54 820.415 1551.04 769.541C1391.32 705.79 999.45 758.564 1071.39 506.438C1141.52 257.927 1420.16 223.492 1443.52 23.9552C1463.89 -150.013 1277.25 -311.157 1121.54 -416.335" stroke="white" stroke-miterlimit="10"/>
<path d="M834.263 1301.74C932.441 1019.16 1466.03 615.415 1639.21 615.31C1750.67 615.31 1739.24 868.623 1749.8 924.484C1766.61 1013.62 1661.59 818.462 1540.59 768.142C1386.88 704.233 1016.53 748.431 1085.36 506.913C1154.13 261.911 1438.74 232.173 1468.04 30.8158C1493.37 -143.337 1311.35 -309.811 1159.25 -418.894" stroke="white" stroke-miterlimit="10"/>
<path d="M849.465 1301.76C954.319 1034.99 1466.43 651.223 1630.66 642.964C1735.39 637.687 1722.77 871.21 1730.66 919.656C1743.86 1000.64 1644.65 816.431 1530.08 766.613C1382.29 702.493 1034.13 738.273 1099.26 507.151C1167.28 265.818 1457.24 240.645 1492.5 37.4661C1522.8 -137.03 1345.34 -308.781 1196.91 -421.664" stroke="white" stroke-miterlimit="10"/>
<path d="M864.667 1301.79C976.225 1050.8 1466.66 687.133 1622.11 670.641C1720 660.245 1706.28 873.819 1711.5 914.851C1720.79 987.599 1627.71 814.396 1519.66 765.317C1377.99 701.012 1051.34 728.375 1113.23 507.676C1179.97 269.878 1475.72 249.323 1517.02 44.403C1552.23 -130.33 1379.39 -307.465 1234.63 -424.147" stroke="white" stroke-miterlimit="10"/>
<path d="M879.868 1301.79C998.103 1066.6 1466.69 723.151 1613.56 698.294C1704.53 682.885 1689.7 876.405 1692.37 910.049C1697.46 974.538 1610.76 812.417 1509.18 763.918C1373.55 699.324 1068.44 718.111 1127.21 507.966C1192.69 273.704 1494.19 257.793 1541.56 51.1053C1581.65 -123.892 1413.43 -306.383 1272.37 -426.892" stroke="white" stroke-miterlimit="10"/>
<path d="M895.07 1301.81C1020.01 1082.41 1466.56 759.381 1605.01 725.949C1688.99 705.684 1673.07 878.781 1673.23 905.379C1673.55 961.425 1593.85 810.387 1498.7 762.653C1369.09 697.741 1085.62 708.111 1141.15 508.627C1205.38 277.927 1512.59 266.66 1566.06 58.1778C1610.92 -117.083 1447.45 -304.905 1310.05 -429.213" stroke="white" stroke-miterlimit="10"/>
<path d="M910.298 1301.84C1041.89 1098.21 1466.27 795.846 1596.49 753.601C1673.37 728.666 1660.7 881.735 1654.07 900.417C1659.35 947.597 1576.93 808.063 1488.25 761.121C1364.66 695.84 1102.75 697.793 1155.11 508.916C1218.05 281.726 1530.96 275.103 1590.57 64.879C1640.32 -110.672 1481.5 -303.824 1347.77 -431.958" stroke="white" stroke-miterlimit="10"/>
<path d="M925.499 1301.84C1063.79 1114.04 1465.87 832.682 1587.93 781.281C1657.71 751.886 1644.62 884.427 1634.94 895.615C1637.37 934.509 1560.04 805.715 1477.77 759.723C1360.23 693.993 1119.87 687.66 1168.99 509.338C1230.67 285.684 1549.24 283.678 1615.01 71.6868C1669.56 -104.155 1515.46 -302.61 1385.4 -434.57" stroke="white" stroke-miterlimit="10"/>
<path d="M940.701 1301.87C1085.67 1129.85 1465.5 869.913 1579.38 808.933C1642.09 775.369 1628.55 887.144 1615.78 890.732C1615.33 921.367 1543.15 803.313 1467.32 758.244C1355.79 691.987 1136.98 677.422 1183 509.654C1243.39 289.536 1567.61 292.148 1639.58 78.4146C1698.89 -97.7173 1549.56 -301.555 1423.17 -437.236" stroke="white" stroke-miterlimit="10"/>
<path d="M955.902 1301.9C1107.58 1145.66 1465.26 907.598 1570.83 836.592C1626.55 799.122 1612.48 889.84 1596.64 886.014C1593.29 908.364 1526.31 800.996 1456.77 756.93C1351.2 690.039 1154 667.347 1196.86 510.16C1255.95 293.551 1585.8 300.781 1664 85.3328C1728.07 -91.1158 1583.5 -300.205 1460.78 -439.765" stroke="white" stroke-miterlimit="10"/>
<path d="M971.105 1301.9C1129.46 1161.47 1465.4 945.675 1562.28 864.271C1611.19 823.134 1596.41 892.558 1577.51 881.185C1571.28 895.276 1509.5 798.515 1446.4 755.531C1347.11 687.902 1171.16 657.188 1210.9 510.582C1268.65 297.483 1604.14 309.304 1688.59 92.1405C1757.37 -84.6511 1617.6 -298.991 1498.57 -442.377" stroke="white" stroke-miterlimit="10"/>
<path d="M986.306 1301.92C1151.36 1177.27 1466.06 984.33 1553.73 891.924C1596.09 847.304 1580.33 895.248 1558.35 876.382C1549.24 882.187 1492.77 795.955 1435.92 754.132C1342.86 685.658 1188.23 647.028 1224.78 510.977C1281.18 301.413 1622.24 317.799 1713.03 98.9737C1786.51 -78.161 1651.57 -297.778 1536.21 -444.964" stroke="white" stroke-miterlimit="10"/>
<path d="M1001.53 1301.95C1173.24 1193.1 1467.43 1023.12 1545.21 919.578C1581.28 871.528 1564.26 897.967 1539.21 871.58C1527.23 869.1 1476.09 793.291 1425.44 752.84C1338.74 683.337 1205.31 636.949 1238.8 511.506C1293.82 305.451 1640.53 326.376 1737.6 105.888C1815.75 -71.5898 1685.66 -296.485 1573.97 -447.47" stroke="white" stroke-miterlimit="10"/>
<path d="M1016.74 1301.95C1195.15 1208.91 1469.51 1061.96 1536.66 947.231C1566.8 895.724 1552.23 896.859 1520.08 866.778C1506.67 854.244 1459.38 790.546 1414.99 751.309C1334.81 680.645 1222.33 626.658 1252.76 511.796C1306.39 309.251 1658.69 334.741 1762.12 112.617C1844.94 -65.2568 1719.68 -295.376 1611.69 -450.188" stroke="white" stroke-miterlimit="10"/>
<path d="M1032.02 1301.97C1217.1 1224.71 1472.39 1100.59 1528.18 974.778C1552.67 919.603 1534.33 901.528 1501 861.816C1484.27 841.894 1443.12 787.59 1404.59 749.778C1331.19 677.716 1239.46 616.366 1266.77 512.086C1318.95 313.024 1676.93 343.052 1786.69 119.292C1874.15 -58.9776 1753.81 -294.295 1649.45 -452.906" stroke="white" stroke-miterlimit="10"/>
<path d="M1047.14 1302C1238.93 1240.52 1475.64 1138.85 1519.55 1002.56C1538.58 943.535 1516.92 905.433 1481.79 857.145C1461.65 829.491 1426.73 784.845 1394.06 748.51C1327.79 674.838 1256.24 606.259 1280.58 512.639C1330.98 316.954 1694.61 351.442 1811.05 126.257C1902.92 -52.5404 1787.67 -292.951 1687.01 -455.388" stroke="white" stroke-miterlimit="10"/>
<path d="M1062.34 1302C1260.81 1256.32 1479.33 1176.64 1511 1030.22C1552.04 841.102 1248.03 695.288 1294.59 513.034C1343.7 320.886 1713.09 359.991 1835.62 133.064C1932.37 -46.0229 1821.79 -291.763 1724.78 -458" stroke="white" stroke-miterlimit="10"/>
</g>
<defs>
<filter id="filter0_f_936_4232" x="-1629.96" y="-810.238" width="4002.96" height="2261.67" filterUnits="userSpaceOnUse" color-interpolation-filters="sRGB">
<feFlood flood-opacity="0" result="BackgroundImageFix"/>
<feBlend mode="normal" in="SourceGraphic" in2="BackgroundImageFix" result="shape"/>
<feGaussianBlur stdDeviation="250" result="effect1_foregroundBlur_936_4232"/>
</filter>
<filter id="filter1_f_936_4232" x="-135.412" y="-99.1152" width="1355.35" height="792.258" filterUnits="userSpaceOnUse" color-interpolation-filters="sRGB">
<feFlood flood-opacity="0" result="BackgroundImageFix"/>
<feBlend mode="normal" in="SourceGraphic" in2="BackgroundImageFix" result="shape"/>
<feGaussianBlur stdDeviation="150" result="effect1_foregroundBlur_936_4232"/>
</filter>
<radialGradient id="paint0_radial_936_4232" cx="0" cy="0" r="1" gradientUnits="userSpaceOnUse" gradientTransform="translate(371.522 -30.8064) rotate(90) scale(982.24 2337.87)">
<stop offset="0.273884" stop-color="#98FAFF"/>
<stop offset="0.508333" stop-color="#00EB95"/>
<stop offset="0.878125" stop-color="#BCE469"/>
</radialGradient>
<clipPath id="clip0_936_4232">
<rect width="1760" height="877" fill="white"/>
</clipPath>
</defs>
</svg>
